<svg id="Layer_1" data-name="Layer 1" xmlns="http://www.w3.org/2000/svg" viewBox="0 0 122.88 97.53"><title>body-check-up</title><path d="M94.65,33.29a51.44,51.44,0,0,0-2.23-5.5,3.25,3.25,0,1,0-5.87,2.81c.39.8.74,1.62,1.07,2.44A30.73,30.73,0,0,1,90.94,33a29.21,29.21,0,0,1,3.71.33ZM88,53.56h4.53a1.54,1.54,0,0,1,1.54,1.54v5.24h5.24a1.54,1.54,0,0,1,1.53,1.53V66.4a1.55,1.55,0,0,1-1.53,1.54H94.07v5.11a1.55,1.55,0,0,1-1.54,1.53H88a1.54,1.54,0,0,1-1.53-1.53V67.94H81.23a1.55,1.55,0,0,1-1.54-1.54V61.87a1.54,1.54,0,0,1,1.54-1.54h5.24V55.1A1.54,1.54,0,0,1,88,53.56Zm-63-19c-2.28-1.44-3.23-2.63-2.69-4.66A3.81,3.81,0,0,1,27,27.25l13.83,7.93,2.78.66a16.54,16.54,0,0,0,9.33.08l3.7-.85,13.29-7.62a3.81,3.81,0,0,1,4.66,2.69c.54,2-.76,3.56-2.69,4.66L57.64,43C58.1,54,60.08,66.58,60.08,77.21c0,3.27-7,3.87-7.64,0L49.9,58.39h-3L44.39,77.21c-.43,3.66-7.86,3.46-7.64,0l2.33-34.53L25,34.6Zm23.43-17a7.67,7.67,0,1,1-7.66,7.67,7.67,7.67,0,0,1,7.66-7.67ZM86.36,41.13a23.26,23.26,0,0,1,27,25.74,22.61,22.61,0,0,1-1.43,5.66l10.53,8.17a1.12,1.12,0,0,1,.2,1.56l-5.51,7.06a1.11,1.11,0,0,1-1.56.2l-10.08-7.9a23.23,23.23,0,0,1-20.39,5.11A23.25,23.25,0,0,1,71.3,50.6l0-.07a23.25,23.25,0,0,1,15-9.4ZM101,48.92A18.56,18.56,0,1,0,79.53,79.19l.07,0a18.62,18.62,0,0,0,20.54.53A18.55,18.55,0,0,0,101,48.92ZM79.88,20.57a3.29,3.29,0,0,0,1.92,1,3.26,3.26,0,0,0,2.92-5.39,45.88,45.88,0,0,0-5-4.85,3.26,3.26,0,0,0-4.62,4.54,4,4,0,0,0,.46.46,35.78,35.78,0,0,1,4.33,4.2ZM65.31,10a3.25,3.25,0,1,0,2.58-6,52.06,52.06,0,0,0-6.56-2.31,3.25,3.25,0,0,0-2.95,5.63A3.15,3.15,0,0,0,59.61,8a45.88,45.88,0,0,1,5.7,2ZM47.67,6.51A3.26,3.26,0,0,0,47.54,0,48.9,48.9,0,0,0,40.6.62,3.25,3.25,0,1,0,41.66,7a41.8,41.8,0,0,1,6-.53ZM30.18,10.65A3.26,3.26,0,0,0,28.7,4.47a3.21,3.21,0,0,0-1.36.33,49,49,0,0,0-6.06,3.45,3.26,3.26,0,0,0,3.09,5.69,2.94,2.94,0,0,0,.55-.3,44,44,0,0,1,5.26-3ZM27.34,4.8,21.28,8.25l3.66,5.38,2.4-8.83ZM16,21.69a3.25,3.25,0,0,0-4.53-4.62,2.93,2.93,0,0,0-.47.46,49.9,49.9,0,0,0-4.07,5.65,3.26,3.26,0,0,0,4.73,4.31,3.35,3.35,0,0,0,.82-.9A42.48,42.48,0,0,1,16,21.69ZM7.66,37.63a3.26,3.26,0,0,0-5.8-2.73A3.36,3.36,0,0,0,1.37,36,51.09,51.09,0,0,0,0,42.77,3.25,3.25,0,0,0,6.39,44a2.24,2.24,0,0,0,.09-.45,44.75,44.75,0,0,1,1.18-5.93Zm-1,18a3.26,3.26,0,0,0-6.44.15,3.29,3.29,0,0,0,0,.94,48.9,48.9,0,0,0,1.62,6.76,3.25,3.25,0,0,0,6.35-1,3.36,3.36,0,0,0-.15-.94,44.12,44.12,0,0,1-1.41-5.88Zm6.63,16.72A3.26,3.26,0,0,0,7.65,75.4,3.36,3.36,0,0,0,8,76a49.5,49.5,0,0,0,4.29,5.5,3.25,3.25,0,1,0,4.8-4.39,46.34,46.34,0,0,1-3.71-4.76Zm13,12.46a3.26,3.26,0,0,0-4.39,4.59,3.05,3.05,0,0,0,1,1,48.39,48.39,0,0,0,6.19,3.21A3.26,3.26,0,0,0,32.38,88a3.63,3.63,0,0,0-.71-.41,41.21,41.21,0,0,1-5.36-2.78Zm17,5.93A3.25,3.25,0,0,0,41.93,97a4.13,4.13,0,0,0,.61.13,46.24,46.24,0,0,0,7,.34,3.25,3.25,0,0,0-.17-6.5,44.94,44.94,0,0,1-6-.3ZM61.2,89a3.25,3.25,0,0,0,2,6.19,49.85,49.85,0,0,0,6.45-2.58,3.19,3.19,0,0,0,1.66-3.94,32,32,0,0,1-2.59-2.2,3.12,3.12,0,0,0-.54,0,3.29,3.29,0,0,0-1.37.33A45.36,45.36,0,0,1,61.2,89Z"/></svg>